<?xml version="1.0" standalone="no"?>
<svg xmlns="http://www.w3.org/2000/svg" width="500" height="500">
    <defs>
        <clipPath id="clip-path-dot-color">
            <path d="M 18 162v 16h 8a 8 8, 0, 0, 0, 0 -16" transform="rotate(180,26,170)"/>
            <path d="M 18 194v 16h 8a 8 8, 0, 0, 0, 0 -16" transform="rotate(180,26,202)"/>
            <circle cx="26" cy="234" r="8" transform="rotate(0,26,234)"/>
            <path d="M 18 274v 16h 8a 8 8, 0, 0, 0, 0 -16" transform="rotate(180,26,282)"/>
            <path d="M 18 322v 16h 16v -8a  8, 0, 0, 0, -8 -8" transform="rotate(-90,26,330)"/>
            <path d="M 18 338v 16h 8a 8 8, 0, 0, 0, 0 -16" transform="rotate(90,26,346)"/>
            <path d="M 34 146v 16h 8a 8 8, 0, 0, 0, 0 -16" transform="rotate(-90,42,154)"/>
            <path d="M 34 162v 16h 16v -8a 8 8, 0, 0, 0, -8 -8" transform="rotate(90,42,170)"/>
            <path d="M 34 194v 16h 8a 8 8, 0, 0, 0, 0 -16" transform="rotate(0,42,202)"/>
            <path d="M 34 242v 16h 16v -8a 8 8, 0, 0, 0, -8 -8" transform="rotate(-90,42,250)"/>
            <rect x="34" y="258" width="16" height="16" transform="rotate(0,42,266)"/>
            <rect x="34" y="274" width="16" height="16" transform="rotate(0,42,282)"/>
            <path d="M 34 290v 16h 8a 8 8, 0, 0, 0, 0 -16" transform="rotate(90,42,298)"/>
            <rect x="34" y="322" width="16" height="16" transform="rotate(0,42,330)"/>
            <path d="M 50 178v 16h 8a 8 8, 0, 0, 0, 0 -16" transform="rotate(180,58,186)"/>
            <path d="M 50 242v 16h 16v -8a 8 8, 0, 0, 0, -8 -8" transform="rotate(0,58,250)"/>
            <rect x="50" y="258" width="16" height="16" transform="rotate(0,58,266)"/>
            <path d="M 50 306v 16h 8a 8 8, 0, 0, 0, 0 -16" transform="rotate(-90,58,314)"/>
            <path d="M 50 322v 16h 16v -8a 8 8, 0, 0, 0, -8 -8" transform="rotate(90,58,330)"/>
            <path d="M 66 146v 16h 8a 8 8, 0, 0, 0, 0 -16" transform="rotate(180,74,154)"/>
            <rect x="66" y="178" width="16" height="16" transform="rotate(0,74,186)"/>
            <path d="M 66 194v 16h 16v -8a 8 8, 0, 0, 0, -8 -8" transform="rotate(180,74,202)"/>
            <path d="M 66 226v 16h 8a 8 8, 0, 0, 0, 0 -16" transform="rotate(180,74,234)"/>
            <path d="M 66 258v 16h 8a 8 8, 0, 0, 0, 0 -16" transform="rotate(0,74,266)"/>
            <circle cx="74" cy="298" r="8" transform="rotate(0,74,298)"/>
            <circle cx="74" cy="346" r="8" transform="rotate(0,74,346)"/>
            <path d="M 82 146v 16h 8a 8 8, 0, 0, 0, 0 -16" transform="rotate(0,90,154)"/>
            <rect x="82" y="178" width="16" height="16" transform="rotate(0,90,186)"/>
            <rect x="82" y="194" width="16" height="16" transform="rotate(0,90,202)"/>
            <rect x="82" y="210" width="16" height="16" transform="rotate(0,90,218)"/>
            <rect x="82" y="226" width="16" height="16" transform="rotate(0,90,234)"/>
            <path d="M 82 242v 16h 16v -8a 8 8, 0, 0, 0, -8 -8" transform="rotate(180,90,250)"/>
            <path d="M 82 306v 16h 8a 8 8, 0, 0, 0, 0 -16" transform="rotate(-90,90,314)"/>
            <path d="M 82 322v 16h 8a 8 8, 0, 0, 0, 0 -16" transform="rotate(90,90,330)"/>
            <rect x="98" y="178" width="16" height="16" transform="rotate(0,106,186)"/>
            <rect x="98" y="210" width="16" height="16" transform="rotate(0,106,218)"/>
            <rect x="98" y="242" width="16" height="16" transform="rotate(0,106,250)"/>
            <rect x="98" y="258" width="16" height="16" transform="rotate(0,106,266)"/>
            <path d="M 98 274v 16h 16v -8a 8 8, 0, 0, 0, -8 -8" transform="rotate(180,106,282)"/>
            <path d="M 98 338v 16h 8a 8 8, 0, 0, 0, 0 -16" transform="rotate(180,106,346)"/>
            <path d="M 114 146v 16h 8a 8 8, 0, 0, 0, 0 -16" transform="rotate(180,122,154)"/>
            <path d="M 114 178v 16h 8a 8 8, 0, 0, 0, 0 -16" transform="rotate(0,122,186)"/>
            <path d="M 114 210v 16h 8a 8 8, 0, 0, 0, 0 -16" transform="rotate(0,122,218)"/>
            <path d="M 114 242v 16h 8a 8 8, 0, 0, 0, 0 -16" transform="rotate(0,122,250)"/>
            <rect x="114" y="274" width="16" height="16" transform="rotate(0,122,282)"/>
            <path d="M 114 306v 16h 8a 8 8, 0, 0, 0, 0 -16" transform="rotate(180,122,314)"/>
            <rect x="114" y="338" width="16" height="16" transform="rotate(0,122,346)"/>
            <rect x="130" y="146" width="16" height="16" transform="rotate(0,138,154)"/>
            <path d="M 130 162v 16h 8a 8 8, 0, 0, 0, 0 -16" transform="rotate(90,138,170)"/>
            <path d="M 130 194v 16h 8a 8 8, 0, 0, 0, 0 -16" transform="rotate(180,138,202)"/>
            <path d="M 130 274v 16h 16v -8a 8 8, 0, 0, 0, -8 -8" transform="rotate(0,138,282)"/>
            <rect x="130" y="290" width="16" height="16" transform="rotate(0,138,298)"/>
            <rect x="130" y="306" width="16" height="16" transform="rotate(0,138,314)"/>
            <rect x="130" y="322" width="16" height="16" transform="rotate(0,138,330)"/>
            <path d="M 130 338v 16h 16v -8a 8 8, 0, 0, 0, -8 -8" transform="rotate(90,138,346)"/>
            <circle cx="154" cy="42" r="8" transform="rotate(0,154,42)"/>
            <path d="M 146 66v 16h 16v -8a 8 8, 0, 0, 0, -8 -8" transform="rotate(-90,154,74)"/>
            <rect x="146" y="82" width="16" height="16" transform="rotate(0,154,90)"/>
            <rect x="146" y="98" width="16" height="16" transform="rotate(0,154,106)"/>
            <path d="M 146 114v 16h 8a 8 8, 0, 0, 0, 0 -16" transform="rotate(90,154,122)"/>
            <rect x="146" y="146" width="16" height="16" transform="rotate(0,154,154)"/>
            <rect x="146" y="194" width="16" height="16" transform="rotate(0,154,202)"/>
            <path d="M 146 210v 16h 16v -8a 8 8, 0, 0, 0, -8 -8" transform="rotate(180,154,218)"/>
            <circle cx="154" cy="250" r="8" transform="rotate(0,154,250)"/>
            <path d="M 146 322v 16h 8a 8 8, 0, 0, 0, 0 -16" transform="rotate(0,154,330)"/>
            <path d="M 146 354v 16h 8a 8 8, 0, 0, 0, 0 -16" transform="rotate(-90,154,362)"/>
            <path d="M 146 370v 16h 8a 8 8, 0, 0, 0, 0 -16" transform="rotate(90,154,378)"/>
            <path d="M 146 402v 16h 16v -8a 8 8, 0, 0, 0, -8 -8" transform="rotate(-90,154,410)"/>
            <path d="M 146 418v 16h 16v -8a 8 8, 0, 0, 0, -8 -8" transform="rotate(180,154,426)"/>
            <path d="M 146 450v 16h 8a 8 8, 0, 0, 0, 0 -16" transform="rotate(180,154,458)"/>
            <path d="M 162 50v 16h 8a 8 8, 0, 0, 0, 0 -16" transform="rotate(-90,170,58)"/>
            <rect x="162" y="66" width="16" height="16" transform="rotate(0,170,74)"/>
            <path d="M 162 82v 16h 16v -8a 8 8, 0, 0, 0, -8 -8" transform="rotate(90,170,90)"/>
            <path d="M 162 130v 16h 16v -8a 8 8, 0, 0, 0, -8 -8" transform="rotate(-90,170,138)"/>
            <rect x="162" y="146" width="16" height="16" transform="rotate(0,170,154)"/>
            <path d="M 162 162v 16h 16v -8a 8 8, 0, 0, 0, -8 -8" transform="rotate(180,170,170)"/>
            <rect x="162" y="194" width="16" height="16" transform="rotate(0,170,202)"/>
            <rect x="162" y="210" width="16" height="16" transform="rotate(0,170,218)"/>
            <path d="M 162 226v 16h 16v -8a 8 8, 0, 0, 0, -8 -8" transform="rotate(180,170,234)"/>
            <circle cx="170" cy="314" r="8" transform="rotate(0,170,314)"/>
            <rect x="162" y="402" width="16" height="16" transform="rotate(0,170,410)"/>
            <rect x="162" y="418" width="16" height="16" transform="rotate(0,170,426)"/>
            <rect x="162" y="434" width="16" height="16" transform="rotate(0,170,442)"/>
            <path d="M 162 450v 16h 16v -8a 8 8, 0, 0, 0, -8 -8" transform="rotate(90,170,458)"/>
            <path d="M 178 66v 16h 8a 8 8, 0, 0, 0, 0 -16" transform="rotate(0,186,74)"/>
            <path d="M 178 114v 16h 8a 8 8, 0, 0, 0, 0 -16" transform="rotate(-90,186,122)"/>
            <rect x="178" y="130" width="16" height="16" transform="rotate(0,186,138)"/>
            <rect x="178" y="146" width="16" height="16" transform="rotate(0,186,154)"/>
            <rect x="178" y="162" width="16" height="16" transform="rotate(0,186,170)"/>
            <rect x="178" y="178" width="16" height="16" transform="rotate(0,186,186)"/>
            <rect x="178" y="194" width="16" height="16" transform="rotate(0,186,202)"/>
            <rect x="178" y="210" width="16" height="16" transform="rotate(0,186,218)"/>
            <rect x="178" y="226" width="16" height="16" transform="rotate(0,186,234)"/>
            <rect x="178" y="242" width="16" height="16" transform="rotate(0,186,250)"/>
            <rect x="178" y="258" width="16" height="16" transform="rotate(0,186,266)"/>
            <rect x="178" y="274" width="16" height="16" transform="rotate(0,186,282)"/>
            <path d="M 178 290v 16h 16v -8a 8 8, 0, 0, 0, -8 -8" transform="rotate(180,186,298)"/>
            <path d="M 178 322v 16h 16v -8a 8 8, 0, 0, 0, -8 -8" transform="rotate(-90,186,330)"/>
            <rect x="178" y="338" width="16" height="16" transform="rotate(0,186,346)"/>
            <rect x="178" y="354" width="16" height="16" transform="rotate(0,186,362)"/>
            <path d="M 178 370v 16h 8a 8 8, 0, 0, 0, 0 -16" transform="rotate(90,186,378)"/>
            <rect x="178" y="402" width="16" height="16" transform="rotate(0,186,410)"/>
            <path d="M 178 434v 16h 8a 8 8, 0, 0, 0, 0 -16" transform="rotate(0,186,442)"/>
            <circle cx="202" cy="42" r="8" transform="rotate(0,202,42)"/>
            <path d="M 194 82v 16h 16v -8a 8 8, 0, 0, 0, -8 -8" transform="rotate(-90,202,90)"/>
            <path d="M 194 98v 16h 16v -8a 8 8, 0, 0, 0, -8 -8" transform="rotate(180,202,106)"/>
            <rect x="194" y="130" width="16" height="16" transform="rotate(0,202,138)"/>
            <path d="M 194 162v 16h 16v -8a 8 8, 0, 0, 0, -8 -8" transform="rotate(0,202,170)"/>
            <rect x="194" y="178" width="16" height="16" transform="rotate(0,202,186)"/>
            <path d="M 194 194v 16h 16v -8a 8 8, 0, 0, 0, -8 -8" transform="rotate(90,202,202)"/>
            <rect x="194" y="242" width="16" height="16" transform="rotate(0,202,250)"/>
            <path d="M 194 290v 16h 16v -8a 8 8, 0, 0, 0, -8 -8" transform="rotate(0,202,298)"/>
            <rect x="194" y="306" width="16" height="16" transform="rotate(0,202,314)"/>
            <rect x="194" y="322" width="16" height="16" transform="rotate(0,202,330)"/>
            <rect x="194" y="338" width="16" height="16" transform="rotate(0,202,346)"/>
            <path d="M 194 386v 16h 8a 8 8, 0, 0, 0, 0 -16" transform="rotate(-90,202,394)"/>
            <path d="M 194 402v 16h 16v -8a 8 8, 0, 0, 0, -8 -8" transform="rotate(90,202,410)"/>
            <circle cx="202" cy="474" r="8" transform="rotate(0,202,474)"/>
            <path d="M 210 50v 16h 8a 8 8, 0, 0, 0, 0 -16" transform="rotate(-90,218,58)"/>
            <rect x="210" y="66" width="16" height="16" transform="rotate(0,218,74)"/>
            <rect x="210" y="82" width="16" height="16" transform="rotate(0,218,90)"/>
            <rect x="210" y="98" width="16" height="16" transform="rotate(0,218,106)"/>
            <rect x="210" y="114" width="16" height="16" transform="rotate(0,218,122)"/>
            <path d="M 210 130v 16h 16v -8a 8 8, 0, 0, 0, -8 -8" transform="rotate(90,218,138)"/>
            <path d="M 210 210v 16h 8a 8 8, 0, 0, 0, 0 -16" transform="rotate(180,218,218)"/>
            <rect x="210" y="242" width="16" height="16" transform="rotate(0,218,250)"/>
            <circle cx="218" cy="282" r="8" transform="rotate(0,218,282)"/>
            <path d="M 210 338v 16h 16v -8a 8 8, 0, 0, 0, -8 -8" transform="rotate(0,218,346)"/>
            <rect x="210" y="354" width="16" height="16" transform="rotate(0,218,362)"/>
            <path d="M 210 370v 16h 16v -8a 8 8, 0, 0, 0, -8 -8" transform="rotate(180,218,378)"/>
            <circle cx="218" cy="426" r="8" transform="rotate(0,218,426)"/>
            <path d="M 210 450v 16h 8a 8 8, 0, 0, 0, 0 -16" transform="rotate(180,218,458)"/>
            <path d="M 226 18v 16h 8a 8 8, 0, 0, 0, 0 -16" transform="rotate(180,234,26)"/>
            <path d="M 226 66v 16h 8a 8 8, 0, 0, 0, 0 -16" transform="rotate(0,234,74)"/>
            <path d="M 226 146v 16h 16v -8a 8 8, 0, 0, 0, -8 -8" transform="rotate(-90,234,154)"/>
            <path d="M 226 162v 16h 16v -8a 8 8, 0, 0, 0, -8 -8" transform="rotate(180,234,170)"/>
            <path d="M 226 194v 16h 16v -8a 8 8, 0, 0, 0, -8 -8" transform="rotate(-90,234,202)"/>
            <path d="M 226 210v 16h 16v -8a 8 8, 0, 0, 0, -8 -8" transform="rotate(90,234,218)"/>
            <rect x="226" y="242" width="16" height="16" transform="rotate(0,234,250)"/>
            <path d="M 226 258v 16h 8a 8 8, 0, 0, 0, 0 -16" transform="rotate(90,234,266)"/>
            <path d="M 226 306v 16h 8a 8 8, 0, 0, 0, 0 -16" transform="rotate(180,234,314)"/>
            <path d="M 226 370v 16h 8a 8 8, 0, 0, 0, 0 -16" transform="rotate(0,234,378)"/>
            <circle cx="234" cy="410" r="8" transform="rotate(0,234,410)"/>
            <path d="M 226 434v 16h 8a 8 8, 0, 0, 0, 0 -16" transform="rotate(-90,234,442)"/>
            <rect x="226" y="450" width="16" height="16" transform="rotate(0,234,458)"/>
            <path d="M 226 466v 16h 16v -8a 8 8, 0, 0, 0, -8 -8" transform="rotate(180,234,474)"/>
            <rect x="242" y="18" width="16" height="16" transform="rotate(0,250,26)"/>
            <path d="M 242 34v 16h 8a 8 8, 0, 0, 0, 0 -16" transform="rotate(90,250,42)"/>
            <circle cx="250" cy="90" r="8" transform="rotate(0,250,90)"/>
            <path d="M 242 114v 16h 8a 8 8, 0, 0, 0, 0 -16" transform="rotate(-90,250,122)"/>
            <rect x="242" y="130" width="16" height="16" transform="rotate(0,250,138)"/>
            <rect x="242" y="146" width="16" height="16" transform="rotate(0,250,154)"/>
            <rect x="242" y="162" width="16" height="16" transform="rotate(0,250,170)"/>
            <rect x="242" y="178" width="16" height="16" transform="rotate(0,250,186)"/>
            <path d="M 242 194v 16h 16v -8a 8 8, 0, 0, 0, -8 -8" transform="rotate(90,250,202)"/>
            <path d="M 242 226v 16h 8a 8 8, 0, 0, 0, 0 -16" transform="rotate(-90,250,234)"/>
            <path d="M 242 242v 16h 16v -8a 8 8, 0, 0, 0, -8 -8" transform="rotate(90,250,250)"/>
            <path d="M 242 274v 16h 8a 8 8, 0, 0, 0, 0 -16" transform="rotate(180,250,282)"/>
            <path d="M 242 306v 16h 16v -8a 8 8, 0, 0, 0, -8 -8" transform="rotate(0,250,314)"/>
            <rect x="242" y="322" width="16" height="16" transform="rotate(0,250,330)"/>
            <path d="M 242 338v 16h 8a 8 8, 0, 0, 0, 0 -16" transform="rotate(90,250,346)"/>
            <circle cx="250" cy="394" r="8" transform="rotate(0,250,394)"/>
            <path d="M 242 418v 16h 8a 8 8, 0, 0, 0, 0 -16" transform="rotate(180,250,426)"/>
            <path d="M 242 466v 16h 8a 8 8, 0, 0, 0, 0 -16" transform="rotate(0,250,474)"/>
            <path d="M 258 18v 16h 8a 8 8, 0, 0, 0, 0 -16" transform="rotate(0,266,26)"/>
            <circle cx="266" cy="74" r="8" transform="rotate(0,266,74)"/>
            <path d="M 258 98v 16h 8a 8 8, 0, 0, 0, 0 -16" transform="rotate(180,266,106)"/>
            <rect x="258" y="130" width="16" height="16" transform="rotate(0,266,138)"/>
            <path d="M 258 146v 16h 16v -8a 8 8, 0, 0, 0, -8 -8" transform="rotate(90,266,154)"/>
            <path d="M 258 258v 16h 8a 8 8, 0, 0, 0, 0 -16" transform="rotate(-90,266,266)"/>
            <path d="M 258 274v 16h 16v -8a 8 8, 0, 0, 0, -8 -8" transform="rotate(90,266,282)"/>
            <path d="M 258 402v 16h 8a 8 8, 0, 0, 0, 0 -16" transform="rotate(-90,266,410)"/>
            <rect x="258" y="418" width="16" height="16" transform="rotate(0,266,426)"/>
            <rect x="258" y="434" width="16" height="16" transform="rotate(0,266,442)"/>
            <path d="M 258 450v 16h 8a 8 8, 0, 0, 0, 0 -16" transform="rotate(90,266,458)"/>
            <path d="M 274 34v 16h 8a 8 8, 0, 0, 0, 0 -16" transform="rotate(180,282,42)"/>
            <path d="M 274 82v 16h 8a 8 8, 0, 0, 0, 0 -16" transform="rotate(-90,282,90)"/>
            <rect x="274" y="98" width="16" height="16" transform="rotate(0,282,106)"/>
            <rect x="274" y="114" width="16" height="16" transform="rotate(0,282,122)"/>
            <rect x="274" y="130" width="16" height="16" transform="rotate(0,282,138)"/>
            <circle cx="282" cy="202" r="8" transform="rotate(0,282,202)"/>
            <path d="M 274 290v 16h 16v -8a 8 8, 0, 0, 0, -8 -8" transform="rotate(-90,282,298)"/>
            <rect x="274" y="306" width="16" height="16" transform="rotate(0,282,314)"/>
            <rect x="274" y="322" width="16" height="16" transform="rotate(0,282,330)"/>
            <path d="M 274 338v 16h 8a 8 8, 0, 0, 0, 0 -16" transform="rotate(90,282,346)"/>
            <circle cx="282" cy="394" r="8" transform="rotate(0,282,394)"/>
            <rect x="274" y="418" width="16" height="16" transform="rotate(0,282,426)"/>
            <circle cx="282" cy="474" r="8" transform="rotate(0,282,474)"/>
            <path d="M 290 18v 16h 16v -8a 8 8, 0, 0, 0, -8 -8" transform="rotate(-90,298,26)"/>
            <rect x="290" y="34" width="16" height="16" transform="rotate(0,298,42)"/>
            <path d="M 290 50v 16h 8a 8 8, 0, 0, 0, 0 -16" transform="rotate(90,298,58)"/>
            <path d="M 290 130v 16h 16v -8a 8 8, 0, 0, 0, -8 -8" transform="rotate(0,298,138)"/>
            <rect x="290" y="146" width="16" height="16" transform="rotate(0,298,154)"/>
            <rect x="290" y="162" width="16" height="16" transform="rotate(0,298,170)"/>
            <path d="M 290 178v 16h 16v -8a 8 8, 0, 0, 0, -8 -8" transform="rotate(180,298,186)"/>
            <circle cx="298" cy="218" r="8" transform="rotate(0,298,218)"/>
            <rect x="290" y="290" width="16" height="16" transform="rotate(0,298,298)"/>
            <path d="M 290 402v 16h 16v -8a 8 8, 0, 0, 0, -8 -8" transform="rotate(-90,298,410)"/>
            <rect x="290" y="418" width="16" height="16" transform="rotate(0,298,426)"/>
            <path d="M 290 434v 16h 8a 8 8, 0, 0, 0, 0 -16" transform="rotate(90,298,442)"/>
            <rect x="306" y="18" width="16" height="16" transform="rotate(0,314,26)"/>
            <rect x="306" y="34" width="16" height="16" transform="rotate(0,314,42)"/>
            <path d="M 306 66v 16h 8a 8 8, 0, 0, 0, 0 -16" transform="rotate(-90,314,74)"/>
            <path d="M 306 82v 16h 16v -8a 8 8, 0, 0, 0, -8 -8" transform="rotate(180,314,90)"/>
            <circle cx="314" cy="122" r="8" transform="rotate(0,314,122)"/>
            <path d="M 306 146v 16h 16v -8a 8 8, 0, 0, 0, -8 -8" transform="rotate(0,314,154)"/>
            <rect x="306" y="162" width="16" height="16" transform="rotate(0,314,170)"/>
            <rect x="306" y="178" width="16" height="16" transform="rotate(0,314,186)"/>
            <path d="M 306 274v 16h 16v -8a 8 8, 0, 0, 0, -8 -8" transform="rotate(-90,314,282)"/>
            <path d="M 306 290v 16h 16v -8a 8 8, 0, 0, 0, -8 -8" transform="rotate(90,314,298)"/>
            <circle cx="314" cy="330" r="8" transform="rotate(0,314,330)"/>
            <path d="M 306 402v 16h 16v -8a 8 8, 0, 0, 0, -8 -8" transform="rotate(0,314,410)"/>
            <path d="M 306 418v 16h 16v -8a 8 8, 0, 0, 0, -8 -8" transform="rotate(90,314,426)"/>
            <circle cx="314" cy="474" r="8" transform="rotate(0,314,474)"/>
            <rect x="322" y="18" width="16" height="16" transform="rotate(0,330,26)"/>
            <rect x="322" y="34" width="16" height="16" transform="rotate(0,330,42)"/>
            <path d="M 322 50v 16h 8a 8 8, 0, 0, 0, 0 -16" transform="rotate(90,330,58)"/>
            <path d="M 322 82v 16h 8a 8 8, 0, 0, 0, 0 -16" transform="rotate(0,330,90)"/>
            <path d="M 322 130v 16h 8a 8 8, 0, 0, 0, 0 -16" transform="rotate(180,330,138)"/>
            <path d="M 322 178v 16h 16v -8a 8 8, 0, 0, 0, -8 -8" transform="rotate(0,330,186)"/>
            <path d="M 322 194v 16h 16v -8a 8 8, 0, 0, 0, -8 -8" transform="rotate(180,330,202)"/>
            <path d="M 322 242v 16h 8a 8 8, 0, 0, 0, 0 -16" transform="rotate(-90,330,250)"/>
            <rect x="322" y="258" width="16" height="16" transform="rotate(0,330,266)"/>
            <path d="M 322 274v 16h 16v -8a 8 8, 0, 0, 0, -8 -8" transform="rotate(90,330,282)"/>
            <path d="M 322 354v 16h 16v -8a 8 8, 0, 0, 0, -8 -8" transform="rotate(-90,330,362)"/>
            <rect x="322" y="370" width="16" height="16" transform="rotate(0,330,378)"/>
            <path d="M 322 386v 16h 16v -8a 8 8, 0, 0, 0, -8 -8" transform="rotate(180,330,394)"/>
            <path d="M 322 434v 16h 16v -8a 8 8, 0, 0, 0, -8 -8" transform="rotate(-90,330,442)"/>
            <path d="M 322 450v 16h 16v -8a 8 8, 0, 0, 0, -8 -8" transform="rotate(180,330,458)"/>
            <path d="M 338 18v 16h 16v -8a 8 8, 0, 0, 0, -8 -8" transform="rotate(0,346,26)"/>
            <path d="M 338 34v 16h 16v -8a 8 8, 0, 0, 0, -8 -8" transform="rotate(90,346,42)"/>
            <path d="M 338 114v 16h 8a 8 8, 0, 0, 0, 0 -16" transform="rotate(-90,346,122)"/>
            <rect x="338" y="130" width="16" height="16" transform="rotate(0,346,138)"/>
            <path d="M 338 146v 16h 16v -8a 8 8, 0, 0, 0, -8 -8" transform="rotate(180,346,154)"/>
            <rect x="338" y="194" width="16" height="16" transform="rotate(0,346,202)"/>
            <rect x="338" y="210" width="16" height="16" transform="rotate(0,346,218)"/>
            <path d="M 338 226v 16h 16v -8a 8 8, 0, 0, 0, -8 -8" transform="rotate(180,346,234)"/>
            <path d="M 338 290v 16h 8a 8 8, 0, 0, 0, 0 -16" transform="rotate(180,346,298)"/>
            <path d="M 338 322v 16h 8a 8 8, 0, 0, 0, 0 -16" transform="rotate(-90,346,330)"/>
            <rect x="338" y="338" width="16" height="16" transform="rotate(0,346,346)"/>
            <rect x="338" y="354" width="16" height="16" transform="rotate(0,346,362)"/>
            <rect x="338" y="370" width="16" height="16" transform="rotate(0,346,378)"/>
            <rect x="338" y="386" width="16" height="16" transform="rotate(0,346,394)"/>
            <rect x="338" y="402" width="16" height="16" transform="rotate(0,346,410)"/>
            <rect x="338" y="418" width="16" height="16" transform="rotate(0,346,426)"/>
            <rect x="338" y="434" width="16" height="16" transform="rotate(0,346,442)"/>
            <path d="M 338 450v 16h 16v -8a 8 8, 0, 0, 0, -8 -8" transform="rotate(90,346,458)"/>
            <path d="M 354 146v 16h 8a 8 8, 0, 0, 0, 0 -16" transform="rotate(0,362,154)"/>
            <path d="M 354 194v 16h 8a 8 8, 0, 0, 0, 0 -16" transform="rotate(0,362,202)"/>
            <rect x="354" y="226" width="16" height="16" transform="rotate(0,362,234)"/>
            <rect x="354" y="242" width="16" height="16" transform="rotate(0,362,250)"/>
            <path d="M 354 258v 16h 16v -8a 8 8, 0, 0, 0, -8 -8" transform="rotate(180,362,266)"/>
            <path d="M 354 290v 16h 16v -8a 8 8, 0, 0, 0, -8 -8" transform="rotate(0,362,298)"/>
            <path d="M 354 306v 16h 8a 8 8, 0, 0, 0, 0 -16" transform="rotate(90,362,314)"/>
            <rect x="354" y="338" width="16" height="16" transform="rotate(0,362,346)"/>
            <rect x="354" y="402" width="16" height="16" transform="rotate(0,362,410)"/>
            <rect x="354" y="418" width="16" height="16" transform="rotate(0,362,426)"/>
            <rect x="354" y="434" width="16" height="16" transform="rotate(0,362,442)"/>
            <circle cx="378" cy="186" r="8" transform="rotate(0,378,186)"/>
            <path d="M 370 210v 16h 16v -8a 8 8, 0, 0, 0, -8 -8" transform="rotate(-90,378,218)"/>
            <rect x="370" y="226" width="16" height="16" transform="rotate(0,378,234)"/>
            <rect x="370" y="242" width="16" height="16" transform="rotate(0,378,250)"/>
            <rect x="370" y="258" width="16" height="16" transform="rotate(0,378,266)"/>
            <path d="M 370 322v 16h 16v -8a 8 8, 0, 0, 0, -8 -8" transform="rotate(-90,378,330)"/>
            <rect x="370" y="338" width="16" height="16" transform="rotate(0,378,346)"/>
            <circle cx="378" cy="378" r="8" transform="rotate(0,378,378)"/>
            <rect x="370" y="402" width="16" height="16" transform="rotate(0,378,410)"/>
            <path d="M 370 434v 16h 8a 8 8, 0, 0, 0, 0 -16" transform="rotate(0,378,442)"/>
            <path d="M 386 146v 16h 8a 8 8, 0, 0, 0, 0 -16" transform="rotate(180,394,154)"/>
            <path d="M 386 210v 16h 16v -8a 8 8, 0, 0, 0, -8 -8" transform="rotate(0,394,218)"/>
            <rect x="386" y="226" width="16" height="16" transform="rotate(0,394,234)"/>
            <rect x="386" y="242" width="16" height="16" transform="rotate(0,394,250)"/>
            <rect x="386" y="258" width="16" height="16" transform="rotate(0,394,266)"/>
            <path d="M 386 274v 16h 8a 8 8, 0, 0, 0, 0 -16" transform="rotate(90,394,282)"/>
            <path d="M 386 306v 16h 8a 8 8, 0, 0, 0, 0 -16" transform="rotate(-90,394,314)"/>
            <rect x="386" y="322" width="16" height="16" transform="rotate(0,394,330)"/>
            <rect x="386" y="338" width="16" height="16" transform="rotate(0,394,346)"/>
            <rect x="386" y="402" width="16" height="16" transform="rotate(0,394,410)"/>
            <path d="M 386 418v 16h 8a 8 8, 0, 0, 0, 0 -16" transform="rotate(90,394,426)"/>
            <rect x="402" y="146" width="16" height="16" transform="rotate(0,410,154)"/>
            <rect x="402" y="162" width="16" height="16" transform="rotate(0,410,170)"/>
            <path d="M 402 178v 16h 8a 8 8, 0, 0, 0, 0 -16" transform="rotate(90,410,186)"/>
            <path d="M 402 226v 16h 16v -8a 8 8, 0, 0, 0, -8 -8" transform="rotate(0,410,234)"/>
            <rect x="402" y="242" width="16" height="16" transform="rotate(0,410,250)"/>
            <path d="M 402 258v 16h 16v -8a 8 8, 0, 0, 0, -8 -8" transform="rotate(90,410,266)"/>
            <path d="M 402 290v 16h 8a 8 8, 0, 0, 0, 0 -16" transform="rotate(180,410,298)"/>
            <path d="M 402 322v 16h 16v -8a 8 8, 0, 0, 0, -8 -8" transform="rotate(0,410,330)"/>
            <rect x="402" y="338" width="16" height="16" transform="rotate(0,410,346)"/>
            <rect x="402" y="354" width="16" height="16" transform="rotate(0,410,362)"/>
            <rect x="402" y="370" width="16" height="16" transform="rotate(0,410,378)"/>
            <rect x="402" y="386" width="16" height="16" transform="rotate(0,410,394)"/>
            <path d="M 402 402v 16h 16v -8a 8 8, 0, 0, 0, -8 -8" transform="rotate(90,410,410)"/>
            <path d="M 402 450v 16h 16v -8a 8 8, 0, 0, 0, -8 -8" transform="rotate(-90,410,458)"/>
            <path d="M 402 466v 16h 8a 8 8, 0, 0, 0, 0 -16" transform="rotate(90,410,474)"/>
            <path d="M 418 146v 16h 8a 8 8, 0, 0, 0, 0 -16" transform="rotate(0,426,154)"/>
            <path d="M 418 290v 16h 16v -8a 8 8, 0, 0, 0, -8 -8" transform="rotate(0,426,298)"/>
            <path d="M 418 306v 16h 8a 8 8, 0, 0, 0, 0 -16" transform="rotate(90,426,314)"/>
            <rect x="418" y="386" width="16" height="16" transform="rotate(0,426,394)"/>
            <path d="M 418 418v 16h 8a 8 8, 0, 0, 0, 0 -16" transform="rotate(180,426,426)"/>
            <rect x="418" y="450" width="16" height="16" transform="rotate(0,426,458)"/>
            <path d="M 434 178v 16h 8a 8 8, 0, 0, 0, 0 -16" transform="rotate(-90,442,186)"/>
            <rect x="434" y="194" width="16" height="16" transform="rotate(0,442,202)"/>
            <path d="M 434 210v 16h 16v -8a 8 8, 0, 0, 0, -8 -8" transform="rotate(180,442,218)"/>
            <circle cx="442" cy="266" r="8" transform="rotate(0,442,266)"/>
            <path d="M 434 338v 16h 8a 8 8, 0, 0, 0, 0 -16" transform="rotate(-90,442,346)"/>
            <path d="M 434 354v 16h 16v -8a 8 8, 0, 0, 0, -8 -8" transform="rotate(180,442,362)"/>
            <path d="M 434 386v 16h 16v -8a 8 8, 0, 0, 0, -8 -8" transform="rotate(0,442,394)"/>
            <rect x="434" y="402" width="16" height="16" transform="rotate(0,442,410)"/>
            <rect x="434" y="418" width="16" height="16" transform="rotate(0,442,426)"/>
            <rect x="434" y="434" width="16" height="16" transform="rotate(0,442,442)"/>
            <rect x="434" y="450" width="16" height="16" transform="rotate(0,442,458)"/>
            <path d="M 434 466v 16h 16v -8a 8 8, 0, 0, 0, -8 -8" transform="rotate(180,442,474)"/>
            <circle cx="458" cy="154" r="8" transform="rotate(0,458,154)"/>
            <path d="M 450 194v 16h 16v -8a 8 8, 0, 0, 0, -8 -8" transform="rotate(0,458,202)"/>
            <rect x="450" y="210" width="16" height="16" transform="rotate(0,458,218)"/>
            <path d="M 450 226v 16h 8a 8 8, 0, 0, 0, 0 -16" transform="rotate(90,458,234)"/>
            <circle cx="458" cy="282" r="8" transform="rotate(0,458,282)"/>
            <circle cx="458" cy="314" r="8" transform="rotate(0,458,314)"/>
            <path d="M 450 354v 16h 16v -8a 8 8, 0, 0, 0, -8 -8" transform="rotate(0,458,362)"/>
            <path d="M 450 370v 16h 16v -8a 8 8, 0, 0, 0, -8 -8" transform="rotate(180,458,378)"/>
            <rect x="450" y="402" width="16" height="16" transform="rotate(0,458,410)"/>
            <rect x="450" y="418" width="16" height="16" transform="rotate(0,458,426)"/>
            <path d="M 450 434v 16h 16v -8a 8 8, 0, 0, 0, -8 -8" transform="rotate(90,458,442)"/>
            <path d="M 450 466v 16h 8a 8 8, 0, 0, 0, 0 -16" transform="rotate(0,458,474)"/>
            <path d="M 466 162v 16h 8a 8 8, 0, 0, 0, 0 -16" transform="rotate(-90,474,170)"/>
            <path d="M 466 178v 16h 8a 8 8, 0, 0, 0, 0 -16" transform="rotate(90,474,186)"/>
            <path d="M 466 242v 16h 8a 8 8, 0, 0, 0, 0 -16" transform="rotate(-90,474,250)"/>
            <path d="M 466 258v 16h 8a 8 8, 0, 0, 0, 0 -16" transform="rotate(90,474,266)"/>
            <path d="M 466 322v 16h 8a 8 8, 0, 0, 0, 0 -16" transform="rotate(-90,474,330)"/>
            <path d="M 466 338v 16h 8a 8 8, 0, 0, 0, 0 -16" transform="rotate(90,474,346)"/>
            <path d="M 466 370v 16h 16v -8a 8 8, 0, 0, 0, -8 -8" transform="rotate(0,474,378)"/>
            <rect x="466" y="386" width="16" height="16" transform="rotate(0,474,394)"/>
            <path d="M 466 402v 16h 16v -8a 8 8, 0, 0, 0, -8 -8" transform="rotate(90,474,410)"/>
        </clipPath>
        <clipPath id="clip-path-corners-square-color-0-0">
            <path clip-rule="evenodd" d="M 18 58v 32a 40 40, 0, 0, 0, 40 40h 32a 40 40, 0, 0, 0, 40 -40v -32a 40 40, 0, 0, 0, -40 -40h -32a 40 40, 0, 0, 0, -40 40M 58 34h 32a 24 24, 0, 0, 1, 24 24v 32a 24 24, 0, 0, 1, -24 24h -32a 24 24, 0, 0, 1, -24 -24v -32a 24 24, 0, 0, 1, 24 -24" transform="rotate(0,74,74)"/>
        </clipPath>
        <clipPath id="clip-path-corners-dot-color-0-0">
            <circle cx="74" cy="74" r="24" transform="rotate(0,74,74)"/>
        </clipPath>
        <clipPath id="clip-path-corners-square-color-1-0">
            <path clip-rule="evenodd" d="M 370 58v 32a 40 40, 0, 0, 0, 40 40h 32a 40 40, 0, 0, 0, 40 -40v -32a 40 40, 0, 0, 0, -40 -40h -32a 40 40, 0, 0, 0, -40 40M 410 34h 32a 24 24, 0, 0, 1, 24 24v 32a 24 24, 0, 0, 1, -24 24h -32a 24 24, 0, 0, 1, -24 -24v -32a 24 24, 0, 0, 1, 24 -24" transform="rotate(90,426,74)"/>
        </clipPath>
        <clipPath id="clip-path-corners-dot-color-1-0">
            <circle cx="426" cy="74" r="24" transform="rotate(90,426,74)"/>
        </clipPath>
        <clipPath id="clip-path-corners-square-color-0-1">
            <path clip-rule="evenodd" d="M 18 410v 32a 40 40, 0, 0, 0, 40 40h 32a 40 40, 0, 0, 0, 40 -40v -32a 40 40, 0, 0, 0, -40 -40h -32a 40 40, 0, 0, 0, -40 40M 58 386h 32a 24 24, 0, 0, 1, 24 24v 32a 24 24, 0, 0, 1, -24 24h -32a 24 24, 0, 0, 1, -24 -24v -32a 24 24, 0, 0, 1, 24 -24" transform="rotate(-90,74,426)"/>
        </clipPath>
        <clipPath id="clip-path-corners-dot-color-0-1">
            <circle cx="74" cy="426" r="24" transform="rotate(-90,74,426)"/>
        </clipPath>
    </defs>
    <rect x="0" y="0" height="500" width="500" clip-path="url('#clip-path-background-color')" fill="#000"/>
    <rect x="0" y="0" height="500" width="500" clip-path="url('#clip-path-dot-color')" fill="#654ef0"/>
    <rect x="18" y="18" height="112" width="112" clip-path="url('#clip-path-corners-square-color-0-0')" fill="#654ef0"/>
    <rect x="50" y="50" height="48" width="48" clip-path="url('#clip-path-corners-dot-color-0-0')" fill="#654ef0"/>
    <rect x="370" y="18" height="112" width="112" clip-path="url('#clip-path-corners-square-color-1-0')" fill="#654ef0"/>
    <rect x="402" y="50" height="48" width="48" clip-path="url('#clip-path-corners-dot-color-1-0')" fill="#654ef0"/>
    <rect x="18" y="370" height="112" width="112" clip-path="url('#clip-path-corners-square-color-0-1')" fill="#654ef0"/>
    <rect x="50" y="402" height="48" width="48" clip-path="url('#clip-path-corners-dot-color-0-1')" fill="#654ef0"/>
</svg>
